<svg width="2000px" height="631px"
 viewBox="0.00 0.00 1688.70 533.42" xmlns="http://www.w3.org/2000/svg" xmlns:xlink="http://www.w3.org/1999/xlink">
<g id="graph0" class="graph" transform="scale(1.0 1.0) rotate(0) translate(4 529.42)">
<title>ContextMapGraph</title>
<polygon fill="white" stroke="transparent" points="-4,4 -4,-529.42 1684.7,-529.42 1684.7,4 -4,4"/>
<!-- Agendamento_de_Servicos -->
<g id="node1" class="node">
<title>Agendamento_de_Servicos</title>
<polygon fill="none" stroke="black" stroke-width="2" points="444.32,-289.65 455.97,-290.53 467.38,-291.52 478.51,-292.61 489.31,-293.8 499.74,-295.1 509.75,-296.48 519.31,-297.96 528.37,-299.51 536.9,-301.15 544.88,-302.87 552.26,-304.65 559.04,-306.5 565.17,-308.41 570.66,-310.37 575.47,-312.38 579.61,-314.43 583.05,-316.53 585.81,-318.65 587.87,-320.8 589.24,-322.97 589.92,-325.16 589.93,-327.36 589.28,-329.56 587.97,-331.77 586.04,-333.97 583.5,-336.15 580.37,-338.33 576.68,-340.48 572.46,-342.6 567.73,-344.7 562.52,-346.76 556.86,-348.78 550.79,-350.75 544.33,-352.68 537.52,-354.55 530.4,-356.36 522.98,-358.11 515.31,-359.79 507.41,-361.41 499.32,-362.94 491.06,-364.4 482.66,-365.78 474.15,-367.07 465.55,-368.27 456.89,-369.37 448.19,-370.38 439.47,-371.3 430.74,-372.11 422.03,-372.81 413.34,-373.41 404.71,-373.9 396.12,-374.28 387.61,-374.55 379.18,-374.7 370.83,-374.74 362.57,-374.66 354.42,-374.46 346.37,-374.15 338.44,-373.72 330.62,-373.18 322.93,-372.51 315.36,-371.74 307.93,-370.84 300.63,-369.84 293.48,-368.73 286.48,-367.5 279.63,-366.17 272.95,-364.74 266.44,-363.21 260.11,-361.59 253.97,-359.87 248.04,-358.07 242.32,-356.19 236.84,-354.22 231.6,-352.19 226.63,-350.09 221.93,-347.93 217.53,-345.72 213.45,-343.46 209.7,-341.16 206.31,-338.82 203.29,-336.46 200.67,-334.08 198.47,-331.69 196.7,-329.29 195.4,-326.89 194.57,-324.51 194.23,-322.14 194.41,-319.79 195.12,-317.48 196.37,-315.2 198.18,-312.98 200.55,-310.8 203.51,-308.69 207.04,-306.64 211.16,-304.66 215.87,-302.77 221.16,-300.96 227.04,-299.23 233.48,-297.61 240.49,-296.08 248.05,-294.66 256.14,-293.35 264.73,-292.15 273.82,-291.07 283.36,-290.1 293.34,-289.26 303.71,-288.53 314.45,-287.94 325.51,-287.47 336.85,-287.12 348.44,-286.91 360.23,-286.82 372.17,-286.85 384.21,-287.02 396.32,-287.3 408.43,-287.71 420.5,-288.24 432.48,-288.89 444.32,-289.65"/>
<text text-anchor="middle" x="384.45" y="-327.45" font-family="sans-serif" font-size="16.00">Agendamento_de_Servicos</text>
</g>
<!-- Atendimento_ao_Cliente -->
<g id="node2" class="node">
<title>Atendimento_ao_Cliente</title>
<polygon fill="none" stroke="black" stroke-width="2" points="849.33,-20.87 856.3,-18.65 863.59,-16.51 871.17,-14.47 879.01,-12.55 887.09,-10.73 895.37,-9.05 903.82,-7.49 912.42,-6.07 921.13,-4.8 929.94,-3.67 938.8,-2.7 947.7,-1.88 956.61,-1.22 965.5,-0.73 974.35,-0.4 983.13,-0.23 991.83,-0.22 1000.41,-0.38 1008.87,-0.7 1017.18,-1.18 1025.33,-1.81 1033.29,-2.59 1041.06,-3.52 1048.62,-4.59 1055.95,-5.8 1063.05,-7.13 1069.89,-8.59 1076.48,-10.16 1082.8,-11.84 1088.85,-13.62 1094.61,-15.49 1100.08,-17.45 1105.25,-19.48 1110.12,-21.57 1114.68,-23.72 1118.92,-25.92 1122.84,-28.16 1126.43,-30.44 1129.7,-32.73 1132.62,-35.05 1135.21,-37.37 1137.46,-39.69 1139.35,-42.01 1140.9,-44.31 1142.08,-46.59 1142.91,-48.85 1143.37,-51.08 1143.46,-53.27 1143.17,-55.42 1142.51,-57.53 1141.47,-59.58 1140.05,-61.59 1138.25,-63.54 1136.05,-65.43 1133.47,-67.27 1130.49,-69.04 1127.13,-70.75 1123.38,-72.39 1119.24,-73.97 1114.72,-75.47 1109.81,-76.91 1104.53,-78.29 1098.88,-79.59 1092.86,-80.82 1086.5,-81.98 1079.79,-83.07 1072.75,-84.09 1065.39,-85.04 1057.73,-85.91 1049.79,-86.71 1041.57,-87.43 1033.11,-88.08 1024.42,-88.66 1015.53,-89.15 1006.47,-89.57 997.24,-89.9 987.9,-90.16 978.45,-90.32 968.94,-90.41 959.38,-90.4 949.82,-90.31 940.29,-90.12 930.82,-89.84 921.43,-89.47 912.17,-89 903.07,-88.43 894.15,-87.76 885.47,-86.98 877.03,-86.11 868.89,-85.13 861.06,-84.04 853.58,-82.85 846.48,-81.56 839.79,-80.16 833.52,-78.66 827.71,-77.06 822.38,-75.35 817.55,-73.55 813.23,-71.66 809.44,-69.67 806.2,-67.6 803.51,-65.45 801.4,-63.21 799.86,-60.91 798.89,-58.54 798.5,-56.12 798.7,-53.64 799.47,-51.12 800.8,-48.57 802.7,-45.99 805.16,-43.4 808.15,-40.79 811.66,-38.19 815.68,-35.6 820.2,-33.03 825.18,-30.5 830.61,-28 836.46,-25.56 842.71,-23.18 849.33,-20.87"/>
<text text-anchor="middle" x="980.45" y="-44.97" font-family="sans-serif" font-size="16.00">Atendimento_ao_Cliente</text>
</g>
<!-- Agendamento_de_Servicos&#45;&gt;Atendimento_ao_Cliente -->
<g id="edge1" class="edge">
<title>Agendamento_de_Servicos&#45;&gt;Atendimento_ao_Cliente</title>
<path fill="none" stroke="black" stroke-width="2" d="M383.86,-286.98C384.17,-239.09 387.83,-166.08 406.45,-146.55 459.31,-91.09 650.91,-67.38 798.36,-57.26"/>
<text text-anchor="middle" x="481.95" y="-187.44" font-family="sans-serif" font-size="12.00"> &#160;&#160;&#160;&#160;&#160;&#160;&#160;&#160;&#160;&#160;&#160;&#160;&#160;&#160;&#160;&#160;&#160;&#160;&#160;&#160;&#160;&#160;&#160;&#160;&#160;&#160;&#160;&#160;&#160;&#160;&#160;&#160;&#160;&#160;&#160;&#160;&#160;&#160;&#160;</text>
<polygon fill="white" stroke="transparent" points="791.36,-48.26 791.36,-65.26 805.36,-65.26 805.36,-48.26 791.36,-48.26"/>
<text text-anchor="start" x="793.36" y="-53.66" font-family="sans-serif" font-size="12.00">D</text>
<polygon fill="white" stroke="transparent" points="359.86,-276.98 359.86,-295.98 375.86,-295.98 375.86,-276.98 359.86,-276.98"/>
<polyline fill="none" stroke="black" points="375.86,-276.98 375.86,-295.98 "/>
<text text-anchor="start" x="362.86" y="-283.38" font-family="sans-serif" font-size="12.00">U</text>
<polygon fill="white" stroke="transparent" points="375.86,-276.98 375.86,-295.98 408.86,-295.98 408.86,-276.98 375.86,-276.98"/>
<polygon fill="none" stroke="black" points="375.86,-276.98 375.86,-295.98 408.86,-295.98 408.86,-276.98 375.86,-276.98"/>
<text text-anchor="start" x="378.86" y="-283.38" font-family="sans-serif" font-size="12.00">OHS</text>
</g>
<!-- Gerenciamento_Franquia -->
<g id="node3" class="node">
<title>Gerenciamento_Franquia</title>
<polygon fill="none" stroke="black" stroke-width="2" points="756.54,-234.47 745.09,-234.53 733.72,-234.47 722.46,-234.28 711.35,-233.98 700.46,-233.55 689.8,-233.01 679.44,-232.34 669.4,-231.56 659.72,-230.66 650.44,-229.65 641.59,-228.52 633.2,-227.29 625.29,-225.95 617.9,-224.52 611.03,-222.98 604.7,-221.36 598.94,-219.64 593.74,-217.84 589.13,-215.96 585.09,-214.01 581.65,-212 578.78,-209.92 576.5,-207.78 574.78,-205.6 573.64,-203.37 573.04,-201.1 572.99,-198.81 573.45,-196.49 574.43,-194.16 575.89,-191.82 577.82,-189.47 580.2,-187.13 583,-184.79 586.21,-182.48 589.8,-180.19 593.75,-177.93 598.04,-175.71 602.63,-173.53 607.52,-171.4 612.68,-169.33 618.09,-167.32 623.73,-165.38 629.59,-163.51 635.63,-161.72 641.85,-160.01 648.24,-158.39 654.77,-156.86 661.43,-155.43 668.22,-154.09 675.12,-152.86 682.12,-151.74 689.22,-150.73 696.4,-149.82 703.66,-149.04 711,-148.36 718.4,-147.81 725.86,-147.37 733.39,-147.05 740.96,-146.85 748.58,-146.77 756.25,-146.81 763.95,-146.97 771.68,-147.24 779.44,-147.64 787.21,-148.14 794.99,-148.77 802.78,-149.5 810.54,-150.34 818.29,-151.29 826,-152.35 833.65,-153.5 841.24,-154.75 848.74,-156.1 856.14,-157.54 863.42,-159.06 870.54,-160.67 877.5,-162.35 884.27,-164.11 890.81,-165.94 897.12,-167.83 903.15,-169.78 908.89,-171.78 914.3,-173.83 919.35,-175.93 924.03,-178.06 928.3,-180.23 932.13,-182.43 935.51,-184.64 938.4,-186.87 940.78,-189.12 942.62,-191.36 943.92,-193.61 944.64,-195.85 944.78,-198.07 944.31,-200.28 943.24,-202.47 941.54,-204.62 939.21,-206.74 936.25,-208.81 932.66,-210.84 928.45,-212.82 923.61,-214.74 918.16,-216.6 912.12,-218.4 905.49,-220.11 898.3,-221.76 890.58,-223.32 882.34,-224.79 873.62,-226.17 864.45,-227.46 854.86,-228.66 844.9,-229.75 834.59,-230.73 823.98,-231.61 813.12,-232.37 802.04,-233.03 790.8,-233.56 779.44,-233.98 768,-234.29 756.54,-234.47"/>
<text text-anchor="middle" x="755.45" y="-186.74" font-family="sans-serif" font-size="16.00">Gerenciamento_Franquia</text>
</g>
<!-- Agendamento_de_Servicos&#45;&gt;Gerenciamento_Franquia -->
<g id="edge2" class="edge">
<title>Agendamento_de_Servicos&#45;&gt;Gerenciamento_Franquia</title>
<path fill="none" stroke="black" stroke-width="2" d="M483.87,-293.08C536.02,-273.58 599.85,-249.72 652.51,-230.03"/>
<text text-anchor="middle" x="648.45" y="-255.94" font-family="sans-serif" font-size="12.00">Customer/Supplier</text>
<polygon fill="white" stroke="transparent" points="645.51,-221.03 645.51,-238.03 659.51,-238.03 659.51,-221.03 645.51,-221.03"/>
<text text-anchor="start" x="647.51" y="-226.43" font-family="sans-serif" font-size="12.00">D</text>
<polygon fill="white" stroke="transparent" points="476.87,-284.08 476.87,-301.08 490.87,-301.08 490.87,-284.08 476.87,-284.08"/>
<text text-anchor="start" x="478.87" y="-289.48" font-family="sans-serif" font-size="12.00">U</text>
</g>
<!-- Gerenciamento_Franquia&#45;&gt;Atendimento_ao_Cliente -->
<g id="edge3" class="edge">
<title>Gerenciamento_Franquia&#45;&gt;Atendimento_ao_Cliente</title>
<path fill="none" stroke="black" stroke-width="2" d="M783.29,-147.68C792.48,-136.14 803.46,-124.37 815.45,-115.55 831.59,-103.67 850.17,-93.58 868.92,-85.14"/>
<text text-anchor="middle" x="890.95" y="-118.95" font-family="sans-serif" font-size="12.00"> &#160;&#160;&#160;&#160;&#160;&#160;&#160;&#160;&#160;&#160;&#160;&#160;&#160;&#160;&#160;&#160;&#160;&#160;&#160;&#160;&#160;&#160;&#160;&#160;&#160;&#160;&#160;&#160;&#160;&#160;&#160;&#160;&#160;&#160;&#160;&#160;&#160;&#160;&#160;</text>
<polygon fill="white" stroke="transparent" points="861.92,-76.14 861.92,-93.14 875.92,-93.14 875.92,-76.14 861.92,-76.14"/>
<text text-anchor="start" x="863.92" y="-81.54" font-family="sans-serif" font-size="12.00">D</text>
<polygon fill="white" stroke="transparent" points="759.29,-137.68 759.29,-156.68 775.29,-156.68 775.29,-137.68 759.29,-137.68"/>
<polyline fill="none" stroke="black" points="775.29,-137.68 775.29,-156.68 "/>
<text text-anchor="start" x="762.29" y="-144.08" font-family="sans-serif" font-size="12.00">U</text>
<polygon fill="white" stroke="transparent" points="775.29,-137.68 775.29,-156.68 808.29,-156.68 808.29,-137.68 775.29,-137.68"/>
<polygon fill="none" stroke="black" points="775.29,-137.68 775.29,-156.68 808.29,-156.68 808.29,-137.68 775.29,-137.68"/>
<text text-anchor="start" x="778.29" y="-144.08" font-family="sans-serif" font-size="12.00">OHS</text>
</g>
<!-- Disponibilidade_de_Servicos -->
<g id="node4" class="node">
<title>Disponibilidade_de_Servicos</title>
<polygon fill="none" stroke="black" stroke-width="2" points="310.61,-87.12 299.65,-88.57 288.49,-89.9 277.18,-91.11 265.77,-92.19 254.3,-93.15 242.8,-93.97 231.33,-94.64 219.92,-95.18 208.62,-95.57 197.46,-95.81 186.47,-95.91 175.7,-95.85 165.18,-95.64 154.93,-95.28 144.98,-94.78 135.37,-94.12 126.11,-93.32 117.22,-92.38 108.72,-91.29 100.64,-90.08 92.97,-88.73 85.74,-87.26 78.95,-85.66 72.61,-83.96 66.73,-82.15 61.3,-80.24 56.33,-78.23 51.82,-76.15 47.76,-73.98 44.16,-71.75 41,-69.46 38.29,-67.12 36.01,-64.74 34.17,-62.32 32.74,-59.87 31.73,-57.42 31.12,-54.95 30.91,-52.48 31.09,-50.02 31.65,-47.58 32.59,-45.16 33.89,-42.77 35.56,-40.42 37.58,-38.11 39.95,-35.86 42.66,-33.66 45.72,-31.53 49.11,-29.46 52.83,-27.47 56.88,-25.55 61.26,-23.71 65.96,-21.96 70.99,-20.29 76.34,-18.72 82,-17.24 87.99,-15.85 94.28,-14.56 100.89,-13.36 107.8,-12.26 115.02,-11.27 122.53,-10.37 130.33,-9.57 138.42,-8.87 146.78,-8.27 155.4,-7.77 164.27,-7.36 173.39,-7.06 182.72,-6.85 192.26,-6.74 201.99,-6.73 211.89,-6.81 221.92,-6.98 232.08,-7.25 242.33,-7.6 252.64,-8.05 262.99,-8.59 273.34,-9.22 283.66,-9.94 293.92,-10.74 304.08,-11.63 314.1,-12.6 323.96,-13.66 333.6,-14.8 342.99,-16.02 352.09,-17.32 360.88,-18.7 369.29,-20.15 377.31,-21.68 384.89,-23.29 392,-24.96 398.61,-26.7 404.67,-28.51 410.17,-30.39 415.07,-32.32 419.35,-34.31 422.98,-36.35 425.95,-38.45 428.23,-40.59 429.81,-42.77 430.69,-44.98 430.84,-47.23 430.27,-49.5 428.97,-51.79 426.95,-54.1 424.21,-56.41 420.76,-58.72 416.62,-61.03 411.8,-63.33 406.31,-65.6 400.19,-67.85 393.45,-70.06 386.12,-72.23 378.25,-74.34 369.84,-76.4 360.96,-78.4 351.62,-80.32 341.88,-82.16 331.77,-83.91 321.33,-85.57 310.61,-87.12"/>
<text text-anchor="middle" x="215.45" y="-44.97" font-family="sans-serif" font-size="16.00">Disponibilidade_de_Servicos</text>
</g>
<!-- Gerenciamento_Franquia&#45;&gt;Disponibilidade_de_Servicos -->
<g id="edge4" class="edge">
<title>Gerenciamento_Franquia&#45;&gt;Disponibilidade_de_Servicos</title>
<path fill="none" stroke="black" stroke-width="2" d="M641.59,-160.07C553.71,-137.33 432.2,-105.88 341.42,-82.38"/>
<text text-anchor="middle" x="593.95" y="-118.95" font-family="sans-serif" font-size="12.00"> &#160;&#160;&#160;&#160;&#160;&#160;&#160;&#160;&#160;&#160;&#160;&#160;&#160;&#160;&#160;&#160;&#160;&#160;&#160;&#160;&#160;&#160;&#160;&#160;&#160;&#160;&#160;&#160;&#160;&#160;&#160;&#160;&#160;&#160;&#160;&#160;&#160;&#160;&#160;</text>
<polygon fill="white" stroke="transparent" points="334.42,-73.38 334.42,-90.38 348.42,-90.38 348.42,-73.38 334.42,-73.38"/>
<text text-anchor="start" x="336.42" y="-78.78" font-family="sans-serif" font-size="12.00">D</text>
<polygon fill="white" stroke="transparent" points="617.59,-150.07 617.59,-169.07 633.59,-169.07 633.59,-150.07 617.59,-150.07"/>
<polyline fill="none" stroke="black" points="633.59,-150.07 633.59,-169.07 "/>
<text text-anchor="start" x="620.59" y="-156.47" font-family="sans-serif" font-size="12.00">U</text>
<polygon fill="white" stroke="transparent" points="633.59,-150.07 633.59,-169.07 666.59,-169.07 666.59,-150.07 633.59,-150.07"/>
<polygon fill="none" stroke="black" points="633.59,-150.07 633.59,-169.07 666.59,-169.07 666.59,-150.07 633.59,-150.07"/>
<text text-anchor="start" x="636.59" y="-156.47" font-family="sans-serif" font-size="12.00">OHS</text>
</g>
<!-- Disponibilidade_de_Servicos&#45;&gt;Agendamento_de_Servicos -->
<g id="edge5" class="edge">
<title>Disponibilidade_de_Servicos&#45;&gt;Agendamento_de_Servicos</title>
<path fill="none" stroke="black" stroke-width="2" d="M234.09,-94.59C250.86,-132.98 277.28,-189.1 306.45,-234.54 317.91,-252.39 332.17,-270.75 345.36,-286.56"/>
<text text-anchor="middle" x="340.95" y="-187.44" font-family="sans-serif" font-size="12.00">Partnership</text>
</g>
<!-- Catalogo_de_Produtos -->
<g id="node5" class="node">
<title>Catalogo_de_Produtos</title>
<polygon fill="none" stroke="black" stroke-width="2" points="1658.84,-496.49 1654.37,-499.08 1649.55,-501.61 1644.38,-504.05 1638.89,-506.4 1633.1,-508.66 1627.02,-510.8 1620.68,-512.82 1614.1,-514.72 1607.29,-516.48 1600.29,-518.1 1593.11,-519.58 1585.77,-520.9 1578.29,-522.06 1570.7,-523.07 1563.02,-523.91 1555.26,-524.59 1547.44,-525.1 1539.6,-525.45 1531.74,-525.63 1523.88,-525.64 1516.05,-525.49 1508.26,-525.19 1500.53,-524.73 1492.87,-524.12 1485.3,-523.36 1477.85,-522.46 1470.52,-521.42 1463.32,-520.26 1456.28,-518.98 1449.41,-517.58 1442.72,-516.08 1436.23,-514.48 1429.94,-512.78 1423.87,-511.01 1418.04,-509.16 1412.45,-507.24 1407.11,-505.26 1402.04,-503.24 1397.26,-501.17 1392.75,-499.07 1388.55,-496.93 1384.66,-494.78 1381.09,-492.62 1377.84,-490.44 1374.93,-488.27 1372.36,-486.09 1370.15,-483.93 1368.3,-481.78 1366.81,-479.65 1365.7,-477.54 1364.97,-475.45 1364.63,-473.4 1364.68,-471.37 1365.12,-469.38 1365.96,-467.43 1367.2,-465.51 1368.85,-463.64 1370.89,-461.81 1373.34,-460.01 1376.19,-458.27 1379.43,-456.56 1383.07,-454.91 1387.1,-453.3 1391.51,-451.73 1396.29,-450.22 1401.44,-448.76 1406.95,-447.35 1412.8,-445.99 1418.98,-444.68 1425.47,-443.43 1432.27,-442.24 1439.35,-441.11 1446.69,-440.04 1454.28,-439.03 1462.1,-438.1 1470.12,-437.23 1478.32,-436.43 1486.67,-435.72 1495.15,-435.08 1503.74,-434.53 1512.41,-434.06 1521.13,-433.69 1529.87,-433.41 1538.61,-433.23 1547.32,-433.16 1555.96,-433.19 1564.51,-433.33 1572.95,-433.58 1581.23,-433.95 1589.35,-434.44 1597.26,-435.05 1604.94,-435.78 1612.37,-436.64 1619.52,-437.63 1626.36,-438.74 1632.88,-439.98 1639.05,-441.34 1644.85,-442.83 1650.26,-444.44 1655.27,-446.17 1659.86,-448.02 1664.01,-449.98 1667.71,-452.05 1670.96,-454.23 1673.74,-456.5 1676.05,-458.86 1677.88,-461.31 1679.22,-463.83 1680.08,-466.42 1680.46,-469.06 1680.35,-471.76 1679.76,-474.5 1678.71,-477.26 1677.18,-480.04 1675.2,-482.83 1672.77,-485.61 1669.91,-488.38 1666.62,-491.12 1662.93,-493.83 1658.84,-496.49"/>
<text text-anchor="middle" x="1518.45" y="-472.89" font-family="sans-serif" font-size="16.00">Catalogo_de_Produtos</text>
</g>
<!-- Gestao_Comercial -->
<g id="node6" class="node">
<title>Gestao_Comercial</title>
<polygon fill="none" stroke="black" stroke-width="2" points="1648.51,-341.66 1646.58,-344.47 1644.29,-347.24 1641.67,-349.95 1638.72,-352.59 1635.44,-355.15 1631.86,-357.62 1627.97,-359.99 1623.8,-362.26 1619.36,-364.4 1614.65,-366.43 1609.69,-368.32 1604.5,-370.07 1599.09,-371.68 1593.47,-373.13 1587.66,-374.44 1581.68,-375.59 1575.55,-376.58 1569.27,-377.42 1562.86,-378.09 1556.35,-378.6 1549.75,-378.95 1543.07,-379.15 1536.34,-379.19 1529.56,-379.07 1522.76,-378.81 1515.96,-378.41 1509.16,-377.87 1502.4,-377.19 1495.68,-376.38 1489.02,-375.45 1482.44,-374.41 1475.95,-373.26 1469.58,-372.01 1463.33,-370.66 1457.22,-369.23 1451.27,-367.71 1445.5,-366.13 1439.91,-364.47 1434.52,-362.76 1429.35,-361 1424.41,-359.18 1419.71,-357.33 1415.26,-355.45 1411.08,-353.54 1407.18,-351.6 1403.57,-349.64 1400.25,-347.68 1397.25,-345.7 1394.56,-343.72 1392.2,-341.73 1390.18,-339.74 1388.49,-337.76 1387.15,-335.79 1386.16,-333.82 1385.52,-331.87 1385.25,-329.92 1385.33,-327.99 1385.78,-326.07 1386.59,-324.17 1387.76,-322.29 1389.29,-320.43 1391.18,-318.58 1393.43,-316.76 1396.03,-314.96 1398.97,-313.18 1402.24,-311.43 1405.85,-309.71 1409.78,-308.01 1414.02,-306.35 1418.56,-304.72 1423.39,-303.13 1428.5,-301.58 1433.87,-300.07 1439.48,-298.61 1445.33,-297.21 1451.4,-295.86 1457.66,-294.56 1464.11,-293.34 1470.72,-292.18 1477.48,-291.1 1484.35,-290.1 1491.34,-289.18 1498.41,-288.36 1505.54,-287.63 1512.72,-287.01 1519.91,-286.49 1527.11,-286.09 1534.29,-285.8 1541.42,-285.64 1548.49,-285.6 1555.47,-285.7 1562.35,-285.93 1569.11,-286.29 1575.71,-286.8 1582.15,-287.45 1588.41,-288.24 1594.46,-289.18 1600.29,-290.27 1605.89,-291.5 1611.23,-292.87 1616.3,-294.38 1621.08,-296.03 1625.57,-297.81 1629.75,-299.72 1633.61,-301.76 1637.14,-303.92 1640.32,-306.18 1643.16,-308.56 1645.64,-311.02 1647.76,-313.58 1649.51,-316.21 1650.89,-318.91 1651.89,-321.67 1652.53,-324.48 1652.78,-327.32 1652.67,-330.19 1652.18,-333.07 1651.32,-335.95 1650.1,-338.82 1648.51,-341.66"/>
<text text-anchor="middle" x="1518.45" y="-327.45" font-family="sans-serif" font-size="16.00">Gestao_Comercial</text>
</g>
<!-- Catalogo_de_Produtos&#45;&gt;Gestao_Comercial -->
<g id="edge6" class="edge">
<title>Catalogo_de_Produtos&#45;&gt;Gestao_Comercial</title>
<path fill="none" stroke="black" stroke-width="2" d="M1518.45,-433.43C1518.45,-416.24 1518.45,-396.32 1518.45,-378.72"/>
<text text-anchor="middle" x="1593.95" y="-400.37" font-family="sans-serif" font-size="12.00"> &#160;&#160;&#160;&#160;&#160;&#160;&#160;&#160;&#160;&#160;&#160;&#160;&#160;&#160;&#160;&#160;&#160;&#160;&#160;&#160;&#160;&#160;&#160;&#160;&#160;&#160;&#160;&#160;&#160;&#160;&#160;&#160;&#160;&#160;&#160;&#160;&#160;&#160;&#160;</text>
<polygon fill="white" stroke="transparent" points="1511.45,-369.72 1511.45,-386.72 1525.45,-386.72 1525.45,-369.72 1511.45,-369.72"/>
<text text-anchor="start" x="1513.45" y="-375.12" font-family="sans-serif" font-size="12.00">D</text>
<polygon fill="white" stroke="transparent" points="1494.45,-423.43 1494.45,-442.43 1510.45,-442.43 1510.45,-423.43 1494.45,-423.43"/>
<polyline fill="none" stroke="black" points="1510.45,-423.43 1510.45,-442.43 "/>
<text text-anchor="start" x="1497.45" y="-429.83" font-family="sans-serif" font-size="12.00">U</text>
<polygon fill="white" stroke="transparent" points="1510.45,-423.43 1510.45,-442.43 1543.45,-442.43 1543.45,-423.43 1510.45,-423.43"/>
<polygon fill="none" stroke="black" points="1510.45,-423.43 1510.45,-442.43 1543.45,-442.43 1543.45,-423.43 1510.45,-423.43"/>
<text text-anchor="start" x="1513.45" y="-429.83" font-family="sans-serif" font-size="12.00">OHS</text>
</g>
<!-- Gestao_Comercial&#45;&gt;Atendimento_ao_Cliente -->
<g id="edge8" class="edge">
<title>Gestao_Comercial&#45;&gt;Atendimento_ao_Cliente</title>
<path fill="none" stroke="black" stroke-width="2" d="M1516.55,-286.41C1512.29,-244.32 1499.15,-182.06 1459.45,-146.55 1412.41,-104.48 1258.32,-78.63 1137.45,-64.35"/>
<text text-anchor="middle" x="1581.95" y="-187.44" font-family="sans-serif" font-size="12.00"> &#160;&#160;&#160;&#160;&#160;&#160;&#160;&#160;&#160;&#160;&#160;&#160;&#160;&#160;&#160;&#160;&#160;&#160;&#160;&#160;&#160;&#160;&#160;&#160;&#160;&#160;&#160;&#160;&#160;&#160;&#160;&#160;&#160;&#160;&#160;&#160;&#160;&#160;&#160;</text>
<polygon fill="white" stroke="transparent" points="1130.45,-55.35 1130.45,-72.35 1144.45,-72.35 1144.45,-55.35 1130.45,-55.35"/>
<text text-anchor="start" x="1132.45" y="-60.75" font-family="sans-serif" font-size="12.00">D</text>
<polygon fill="white" stroke="transparent" points="1492.55,-276.41 1492.55,-295.41 1508.55,-295.41 1508.55,-276.41 1492.55,-276.41"/>
<polyline fill="none" stroke="black" points="1508.55,-276.41 1508.55,-295.41 "/>
<text text-anchor="start" x="1495.55" y="-282.81" font-family="sans-serif" font-size="12.00">U</text>
<polygon fill="white" stroke="transparent" points="1508.55,-276.41 1508.55,-295.41 1541.55,-295.41 1541.55,-276.41 1508.55,-276.41"/>
<polygon fill="none" stroke="black" points="1508.55,-276.41 1508.55,-295.41 1541.55,-295.41 1541.55,-276.41 1508.55,-276.41"/>
<text text-anchor="start" x="1511.55" y="-282.81" font-family="sans-serif" font-size="12.00">OHS</text>
</g>
<!-- Gestao_Comercial&#45;&gt;Gerenciamento_Franquia -->
<g id="edge7" class="edge">
<title>Gestao_Comercial&#45;&gt;Gerenciamento_Franquia</title>
<path fill="none" stroke="black" stroke-width="2" d="M1434.11,-299.81C1415.01,-293.72 1394.68,-287.88 1375.45,-283.54 1270.54,-259.84 1242.29,-264.87 1135.45,-252.54 1056.9,-243.47 1036.57,-246.74 958.45,-234.54 937.27,-231.23 914.97,-227.13 893.21,-222.8"/>
<text text-anchor="middle" x="1346.95" y="-255.94" font-family="sans-serif" font-size="12.00"> &#160;&#160;&#160;&#160;&#160;&#160;&#160;&#160;&#160;&#160;&#160;&#160;&#160;&#160;&#160;&#160;&#160;&#160;&#160;&#160;&#160;&#160;&#160;&#160;&#160;&#160;&#160;&#160;&#160;&#160;&#160;&#160;&#160;&#160;&#160;&#160;&#160;&#160;&#160;</text>
<polygon fill="white" stroke="transparent" points="886.21,-213.8 886.21,-230.8 900.21,-230.8 900.21,-213.8 886.21,-213.8"/>
<text text-anchor="start" x="888.21" y="-219.2" font-family="sans-serif" font-size="12.00">D</text>
<polygon fill="white" stroke="transparent" points="1410.11,-289.81 1410.11,-308.81 1426.11,-308.81 1426.11,-289.81 1410.11,-289.81"/>
<polyline fill="none" stroke="black" points="1426.11,-289.81 1426.11,-308.81 "/>
<text text-anchor="start" x="1413.11" y="-296.21" font-family="sans-serif" font-size="12.00">U</text>
<polygon fill="white" stroke="transparent" points="1426.11,-289.81 1426.11,-308.81 1459.11,-308.81 1459.11,-289.81 1426.11,-289.81"/>
<polygon fill="none" stroke="black" points="1426.11,-289.81 1426.11,-308.81 1459.11,-308.81 1459.11,-289.81 1426.11,-289.81"/>
<text text-anchor="start" x="1429.11" y="-296.21" font-family="sans-serif" font-size="12.00">OHS</text>
</g>
<!-- Conselho_de_Medicina_Veterinaria_Externo -->
<g id="node7" class="node">
<title>Conselho_de_Medicina_Veterinaria_Externo</title>
<polygon fill="none" stroke="black" stroke-width="2" points="874.49,-518.67 857.21,-519.57 839.81,-520.35 822.36,-521 804.92,-521.52 787.57,-521.91 770.37,-522.17 753.38,-522.3 736.68,-522.28 720.31,-522.13 704.33,-521.84 688.8,-521.42 673.77,-520.85 659.27,-520.16 645.37,-519.32 632.09,-518.36 619.46,-517.26 607.52,-516.04 596.3,-514.7 585.8,-513.24 576.06,-511.67 567.08,-509.99 558.87,-508.21 551.45,-506.34 544.8,-504.37 538.93,-502.32 533.83,-500.2 529.49,-498 525.91,-495.75 523.06,-493.44 520.94,-491.09 519.53,-488.7 518.8,-486.29 518.75,-483.85 519.33,-481.4 520.55,-478.94 522.36,-476.49 524.76,-474.04 527.71,-471.62 531.2,-469.23 535.2,-466.86 539.7,-464.54 544.67,-462.27 550.1,-460.05 555.96,-457.89 562.25,-455.8 568.95,-453.77 576.04,-451.83 583.52,-449.97 591.36,-448.19 599.57,-446.51 608.13,-444.92 617.03,-443.43 626.28,-442.04 635.85,-440.75 645.75,-439.57 655.97,-438.49 666.5,-437.52 677.34,-436.67 688.48,-435.92 699.91,-435.28 711.63,-434.76 723.63,-434.34 735.89,-434.04 748.41,-433.85 761.16,-433.76 774.14,-433.79 787.32,-433.92 800.69,-434.16 814.22,-434.5 827.89,-434.94 841.66,-435.48 855.52,-436.13 869.41,-436.87 883.32,-437.7 897.19,-438.62 911,-439.64 924.7,-440.74 938.23,-441.93 951.57,-443.19 964.65,-444.54 977.43,-445.97 989.86,-447.46 1001.88,-449.03 1013.45,-450.67 1024.51,-452.37 1035.02,-454.13 1044.91,-455.95 1054.15,-457.83 1062.67,-459.75 1070.44,-461.72 1077.41,-463.74 1083.54,-465.79 1088.79,-467.89 1093.12,-470.01 1096.51,-472.15 1098.91,-474.32 1100.32,-476.51 1100.71,-478.71 1100.06,-480.92 1098.37,-483.12 1095.63,-485.33 1091.84,-487.52 1087,-489.7 1081.14,-491.86 1074.25,-494 1066.37,-496.09 1057.53,-498.16 1047.74,-500.17 1037.05,-502.14 1025.51,-504.05 1013.15,-505.89 1000.02,-507.67 986.18,-509.37 971.69,-510.98 956.6,-512.52 940.98,-513.95 924.89,-515.29 908.4,-516.53 891.57,-517.66 874.49,-518.67"/>
<text text-anchor="middle" x="791.45" y="-472.89" font-family="sans-serif" font-size="16.00">Conselho_de_Medicina_Veterinaria_Externo</text>
</g>
<!-- Gestao_de_Veterinarios -->
<g id="node8" class="node">
<title>Gestao_de_Veterinarios</title>
<polygon fill="none" stroke="black" stroke-width="2" points="725.01,-371.47 715.03,-370.36 705.29,-369.14 695.85,-367.83 686.72,-366.42 677.96,-364.92 669.59,-363.33 661.66,-361.67 654.19,-359.93 647.21,-358.12 640.74,-356.25 634.82,-354.32 629.46,-352.34 624.68,-350.32 620.49,-348.25 616.91,-346.15 613.94,-344.02 611.59,-341.87 609.87,-339.69 608.76,-337.51 608.27,-335.32 608.38,-333.12 609.1,-330.93 610.4,-328.75 612.27,-326.58 614.7,-324.43 617.65,-322.3 621.13,-320.2 625.08,-318.13 629.51,-316.1 634.37,-314.11 639.63,-312.17 645.28,-310.27 651.28,-308.43 657.6,-306.64 664.22,-304.92 671.1,-303.26 678.21,-301.67 685.52,-300.15 693.01,-298.7 700.64,-297.34 708.4,-296.05 716.25,-294.85 724.18,-293.74 732.15,-292.72 740.14,-291.8 748.15,-290.97 756.13,-290.24 764.09,-289.61 772,-289.08 779.85,-288.66 787.62,-288.35 795.31,-288.15 802.9,-288.06 810.38,-288.08 817.75,-288.21 825,-288.46 832.12,-288.82 839.11,-289.29 845.96,-289.88 852.67,-290.59 859.23,-291.4 865.64,-292.33 871.9,-293.37 877.99,-294.52 883.93,-295.78 889.7,-297.14 895.3,-298.6 900.71,-300.17 905.95,-301.82 910.99,-303.57 915.83,-305.41 920.47,-307.32 924.88,-309.32 929.07,-311.38 933.02,-313.52 936.71,-315.71 940.14,-317.96 943.29,-320.25 946.14,-322.59 948.69,-324.95 950.91,-327.35 952.79,-329.76 954.32,-332.19 955.47,-334.62 956.24,-337.04 956.6,-339.46 956.55,-341.85 956.06,-344.22 955.13,-346.55 953.75,-348.84 951.9,-351.08 949.57,-353.26 946.76,-355.38 943.47,-357.43 939.68,-359.4 935.4,-361.28 930.62,-363.07 925.36,-364.77 919.62,-366.36 913.41,-367.85 906.73,-369.23 899.6,-370.49 892.04,-371.63 884.07,-372.65 875.71,-373.54 866.98,-374.31 857.92,-374.95 848.54,-375.46 838.88,-375.83 828.98,-376.07 818.87,-376.18 808.59,-376.16 798.17,-376.01 787.66,-375.73 777.1,-375.32 766.53,-374.79 755.99,-374.14 745.53,-373.36 735.19,-372.47 725.01,-371.47"/>
<text text-anchor="middle" x="791.45" y="-327.45" font-family="sans-serif" font-size="16.00">Gestao_de_Veterinarios</text>
</g>
<!-- Conselho_de_Medicina_Veterinaria_Externo&#45;&gt;Gestao_de_Veterinarios -->
<g id="edge9" class="edge">
<title>Conselho_de_Medicina_Veterinaria_Externo&#45;&gt;Gestao_de_Veterinarios</title>
<path fill="none" stroke="black" stroke-width="2" d="M791.45,-433.82C791.45,-415.63 791.45,-394.32 791.45,-375.93"/>
<text text-anchor="middle" x="866.95" y="-400.37" font-family="sans-serif" font-size="12.00"> &#160;&#160;&#160;&#160;&#160;&#160;&#160;&#160;&#160;&#160;&#160;&#160;&#160;&#160;&#160;&#160;&#160;&#160;&#160;&#160;&#160;&#160;&#160;&#160;&#160;&#160;&#160;&#160;&#160;&#160;&#160;&#160;&#160;&#160;&#160;&#160;&#160;&#160;&#160;</text>
<polygon fill="white" stroke="transparent" points="768.45,-365.93 768.45,-384.93 784.45,-384.93 784.45,-365.93 768.45,-365.93"/>
<polyline fill="none" stroke="black" points="784.45,-365.93 784.45,-384.93 "/>
<text text-anchor="start" x="771.45" y="-372.33" font-family="sans-serif" font-size="12.00">D</text>
<polygon fill="white" stroke="transparent" points="784.45,-365.93 784.45,-384.93 814.45,-384.93 814.45,-365.93 784.45,-365.93"/>
<polygon fill="none" stroke="black" points="784.45,-365.93 784.45,-384.93 814.45,-384.93 814.45,-365.93 784.45,-365.93"/>
<text text-anchor="start" x="787.45" y="-372.33" font-family="sans-serif" font-size="12.00">ACL</text>
<polygon fill="white" stroke="transparent" points="784.45,-424.82 784.45,-441.82 798.45,-441.82 798.45,-424.82 784.45,-424.82"/>
<text text-anchor="start" x="786.45" y="-430.22" font-family="sans-serif" font-size="12.00">U</text>
</g>
<!-- Gestao_de_Veterinarios&#45;&gt;Atendimento_ao_Cliente -->
<g id="edge10" class="edge">
<title>Gestao_de_Veterinarios&#45;&gt;Atendimento_ao_Cliente</title>
<path fill="none" stroke="black" stroke-width="2" d="M890.73,-297.4C917.3,-282.92 941.85,-262.61 953.45,-234.54 972.81,-187.65 978.59,-129.04 980.16,-90.56"/>
<text text-anchor="middle" x="1050.95" y="-187.44" font-family="sans-serif" font-size="12.00"> &#160;&#160;&#160;&#160;&#160;&#160;&#160;&#160;&#160;&#160;&#160;&#160;&#160;&#160;&#160;&#160;&#160;&#160;&#160;&#160;&#160;&#160;&#160;&#160;&#160;&#160;&#160;&#160;&#160;&#160;&#160;&#160;&#160;&#160;&#160;&#160;&#160;&#160;&#160;</text>
<polygon fill="white" stroke="transparent" points="973.16,-81.56 973.16,-98.56 987.16,-98.56 987.16,-81.56 973.16,-81.56"/>
<text text-anchor="start" x="975.16" y="-86.96" font-family="sans-serif" font-size="12.00">D</text>
<polygon fill="white" stroke="transparent" points="866.73,-287.4 866.73,-306.4 882.73,-306.4 882.73,-287.4 866.73,-287.4"/>
<polyline fill="none" stroke="black" points="882.73,-287.4 882.73,-306.4 "/>
<text text-anchor="start" x="869.73" y="-293.8" font-family="sans-serif" font-size="12.00">U</text>
<polygon fill="white" stroke="transparent" points="882.73,-287.4 882.73,-306.4 915.73,-306.4 915.73,-287.4 882.73,-287.4"/>
<polygon fill="none" stroke="black" points="882.73,-287.4 882.73,-306.4 915.73,-306.4 915.73,-287.4 882.73,-287.4"/>
<text text-anchor="start" x="885.73" y="-293.8" font-family="sans-serif" font-size="12.00">OHS</text>
</g>
<!-- Gestao_de_Veterinarios&#45;&gt;Gerenciamento_Franquia -->
<g id="edge11" class="edge">
<title>Gestao_de_Veterinarios&#45;&gt;Gerenciamento_Franquia</title>
<path fill="none" stroke="black" stroke-width="2" d="M780.55,-288.26C776.12,-271.19 771.01,-251.5 766.56,-234.35"/>
<text text-anchor="middle" x="850.95" y="-255.94" font-family="sans-serif" font-size="12.00"> &#160;&#160;&#160;&#160;&#160;&#160;&#160;&#160;&#160;&#160;&#160;&#160;&#160;&#160;&#160;&#160;&#160;&#160;&#160;&#160;&#160;&#160;&#160;&#160;&#160;&#160;&#160;&#160;&#160;&#160;&#160;&#160;&#160;&#160;&#160;&#160;&#160;&#160;&#160;</text>
<polygon fill="white" stroke="transparent" points="759.56,-225.35 759.56,-242.35 773.56,-242.35 773.56,-225.35 759.56,-225.35"/>
<text text-anchor="start" x="761.56" y="-230.75" font-family="sans-serif" font-size="12.00">D</text>
<polygon fill="white" stroke="transparent" points="756.55,-278.26 756.55,-297.26 772.55,-297.26 772.55,-278.26 756.55,-278.26"/>
<polyline fill="none" stroke="black" points="772.55,-278.26 772.55,-297.26 "/>
<text text-anchor="start" x="759.55" y="-284.66" font-family="sans-serif" font-size="12.00">U</text>
<polygon fill="white" stroke="transparent" points="772.55,-278.26 772.55,-297.26 805.55,-297.26 805.55,-278.26 772.55,-278.26"/>
<polygon fill="none" stroke="black" points="772.55,-278.26 772.55,-297.26 805.55,-297.26 805.55,-278.26 772.55,-278.26"/>
<text text-anchor="start" x="775.55" y="-284.66" font-family="sans-serif" font-size="12.00">OHS</text>
</g>
<!-- Gestao_de_Passeadores -->
<g id="node9" class="node">
<title>Gestao_de_Passeadores</title>
<polygon fill="none" stroke="black" stroke-width="2" points="1243.28,-372.05 1233.21,-373.19 1223.01,-374.21 1212.75,-375.1 1202.45,-375.86 1192.16,-376.49 1181.91,-376.99 1171.75,-377.35 1161.71,-377.57 1151.83,-377.64 1142.14,-377.57 1132.67,-377.36 1123.45,-377.01 1114.52,-376.51 1105.89,-375.87 1097.59,-375.09 1089.64,-374.17 1082.07,-373.11 1074.88,-371.93 1068.09,-370.62 1061.72,-369.18 1055.77,-367.63 1050.25,-365.96 1045.16,-364.19 1040.51,-362.32 1036.3,-360.35 1032.53,-358.3 1029.2,-356.17 1026.3,-353.96 1023.83,-351.7 1021.77,-349.38 1020.13,-347.01 1018.89,-344.6 1018.04,-342.17 1017.58,-339.71 1017.49,-337.24 1017.76,-334.76 1018.39,-332.29 1019.36,-329.83 1020.66,-327.39 1022.27,-324.97 1024.2,-322.59 1026.43,-320.25 1028.95,-317.95 1031.76,-315.71 1034.84,-313.54 1038.19,-311.42 1041.81,-309.38 1045.68,-307.42 1049.8,-305.54 1054.17,-303.74 1058.78,-302.04 1063.63,-300.42 1068.72,-298.9 1074.04,-297.48 1079.59,-296.17 1085.37,-294.95 1091.37,-293.84 1097.6,-292.83 1104.04,-291.93 1110.7,-291.14 1117.56,-290.45 1124.63,-289.87 1131.89,-289.4 1139.35,-289.03 1146.98,-288.77 1154.78,-288.62 1162.75,-288.57 1170.85,-288.62 1179.09,-288.77 1187.45,-289.03 1195.9,-289.38 1204.44,-289.83 1213.03,-290.38 1221.66,-291.02 1230.3,-291.75 1238.93,-292.57 1247.52,-293.49 1256.04,-294.48 1264.48,-295.57 1272.78,-296.73 1280.93,-297.98 1288.89,-299.3 1296.64,-300.71 1304.13,-302.18 1311.34,-303.73 1318.23,-305.34 1324.78,-307.02 1330.95,-308.77 1336.71,-310.58 1342.03,-312.44 1346.89,-314.36 1351.25,-316.33 1355.1,-318.34 1358.41,-320.4 1361.16,-322.5 1363.32,-324.64 1364.9,-326.8 1365.86,-329 1366.21,-331.21 1365.92,-333.44 1365.01,-335.68 1363.46,-337.93 1361.28,-340.17 1358.48,-342.41 1355.05,-344.64 1351.02,-346.84 1346.39,-349.02 1341.19,-351.17 1335.42,-353.29 1329.12,-355.35 1322.31,-357.37 1315.02,-359.32 1307.27,-361.21 1299.1,-363.03 1290.55,-364.77 1281.65,-366.42 1272.43,-367.98 1262.94,-369.44 1253.21,-370.8 1243.28,-372.05"/>
<text text-anchor="middle" x="1179.45" y="-327.45" font-family="sans-serif" font-size="16.00">Gestao_de_Passeadores</text>
</g>
<!-- Gestao_de_Passeadores&#45;&gt;Atendimento_ao_Cliente -->
<g id="edge12" class="edge">
<title>Gestao_de_Passeadores&#45;&gt;Atendimento_ao_Cliente</title>
<path fill="none" stroke="black" stroke-width="2" d="M1296.22,-300.39C1317.19,-288.83 1329.15,-273.24 1317.45,-252.54 1268.47,-165.9 1166.02,-112.19 1086.87,-82"/>
<text text-anchor="middle" x="1379.95" y="-187.44" font-family="sans-serif" font-size="12.00"> &#160;&#160;&#160;&#160;&#160;&#160;&#160;&#160;&#160;&#160;&#160;&#160;&#160;&#160;&#160;&#160;&#160;&#160;&#160;&#160;&#160;&#160;&#160;&#160;&#160;&#160;&#160;&#160;&#160;&#160;&#160;&#160;&#160;&#160;&#160;&#160;&#160;&#160;&#160;</text>
<polygon fill="white" stroke="transparent" points="1079.87,-73 1079.87,-90 1093.87,-90 1093.87,-73 1079.87,-73"/>
<text text-anchor="start" x="1081.87" y="-78.4" font-family="sans-serif" font-size="12.00">D</text>
<polygon fill="white" stroke="transparent" points="1272.22,-290.39 1272.22,-309.39 1288.22,-309.39 1288.22,-290.39 1272.22,-290.39"/>
<polyline fill="none" stroke="black" points="1288.22,-290.39 1288.22,-309.39 "/>
<text text-anchor="start" x="1275.22" y="-296.79" font-family="sans-serif" font-size="12.00">U</text>
<polygon fill="white" stroke="transparent" points="1288.22,-290.39 1288.22,-309.39 1321.22,-309.39 1321.22,-290.39 1288.22,-290.39"/>
<polygon fill="none" stroke="black" points="1288.22,-290.39 1288.22,-309.39 1321.22,-309.39 1321.22,-290.39 1288.22,-290.39"/>
<text text-anchor="start" x="1291.22" y="-296.79" font-family="sans-serif" font-size="12.00">OHS</text>
</g>
<!-- Gestao_de_Passeadores&#45;&gt;Gerenciamento_Franquia -->
<g id="edge13" class="edge">
<title>Gestao_de_Passeadores&#45;&gt;Gerenciamento_Franquia</title>
<path fill="none" stroke="black" stroke-width="2" d="M1076.81,-296.67C1012.84,-275.75 930.58,-248.84 865.3,-227.48"/>
<text text-anchor="middle" x="1055.95" y="-255.94" font-family="sans-serif" font-size="12.00"> &#160;&#160;&#160;&#160;&#160;&#160;&#160;&#160;&#160;&#160;&#160;&#160;&#160;&#160;&#160;&#160;&#160;&#160;&#160;&#160;&#160;&#160;&#160;&#160;&#160;&#160;&#160;&#160;&#160;&#160;&#160;&#160;&#160;&#160;&#160;&#160;&#160;&#160;&#160;</text>
<polygon fill="white" stroke="transparent" points="858.3,-218.48 858.3,-235.48 872.3,-235.48 872.3,-218.48 858.3,-218.48"/>
<text text-anchor="start" x="860.3" y="-223.88" font-family="sans-serif" font-size="12.00">D</text>
<polygon fill="white" stroke="transparent" points="1052.81,-286.67 1052.81,-305.67 1068.81,-305.67 1068.81,-286.67 1052.81,-286.67"/>
<polyline fill="none" stroke="black" points="1068.81,-286.67 1068.81,-305.67 "/>
<text text-anchor="start" x="1055.81" y="-293.07" font-family="sans-serif" font-size="12.00">U</text>
<polygon fill="white" stroke="transparent" points="1068.81,-286.67 1068.81,-305.67 1101.81,-305.67 1101.81,-286.67 1068.81,-286.67"/>
<polygon fill="none" stroke="black" points="1068.81,-286.67 1068.81,-305.67 1101.81,-305.67 1101.81,-286.67 1068.81,-286.67"/>
<text text-anchor="start" x="1071.81" y="-293.07" font-family="sans-serif" font-size="12.00">OHS</text>
</g>
</g>
</svg>
